<?xml version="1.0" encoding="utf-8"?><svg version="1.1" id="Layer_1" xmlns="http://www.w3.org/2000/svg" xmlns:xlink="http://www.w3.org/1999/xlink" x="0px" y="0px" viewBox="0 0 122.88 78.32" style="enable-background:new 0 0 122.88 78.32" xml:space="preserve"><g><path d="M68.64,49.8c0.06,0.07,0.11,0.13,0.17,0.19c-0.02,0.42-0.03,0.85-0.03,1.28c0,7.47,3.03,14.23,7.92,19.13 c4.89,4.9,11.66,7.92,19.13,7.92c7.47,0,14.23-3.03,19.13-7.92c4.89-4.89,7.92-11.66,7.92-19.13c0-3.13-0.53-6.13-1.51-8.92 c0.06-0.37,0.05-0.77-0.05-1.16L111.28,2.11c-0.38-1.5-1.91-2.4-3.4-2.02c-1.5,0.38-2.4,1.91-2.02,3.4l6.85,26.63 c-4.62-3.7-10.49-5.9-16.87-5.9c-7.47,0-14.23,3.03-19.13,7.92c-3.02,3.02-5.33,6.75-6.66,10.92c-5.02-3.93-12.19-3.94-17.22,0 c-1.33-4.17-3.63-7.9-6.66-10.92c-4.89-4.89-11.66-7.92-19.13-7.92c-6.38,0-12.24,2.21-16.87,5.9l6.85-26.63 c0.38-1.5-0.52-3.02-2.02-3.4c-1.5-0.38-3.02,0.52-3.4,2.02L1.55,41.19c-0.1,0.39-0.11,0.79-0.05,1.16C0.53,45.14,0,48.14,0,51.27 c0,7.47,3.03,14.23,7.92,19.13c4.89,4.9,11.66,7.92,19.13,7.92c7.47,0,14.23-3.03,19.13-7.92c4.9-4.89,7.92-11.66,7.92-19.13 c0-0.43-0.01-0.85-0.03-1.28c0.06-0.06,0.12-0.12,0.17-0.19C58.96,44.29,64.08,44.47,68.64,49.8L68.64,49.8z M27.25,29.17 c12.12,0,21.94,9.82,21.94,21.94c0,12.12-9.82,21.94-21.94,21.94c-12.12,0-21.94-9.82-21.94-21.94 C5.31,38.99,15.13,29.17,27.25,29.17L27.25,29.17z M95.83,73.16c-12.09,0-21.89-9.8-21.89-21.89c0-23.69,32.5-30.21,41.92-8.84 C121.71,56.06,112.52,73.16,95.83,73.16L95.83,73.16z"/></g></svg>